<svg width="1047" height="252" viewBox="0 0 1047 252" fill="none" xmlns="http://www.w3.org/2000/svg">
<path d="M296.569 140.669C307.616 140.669 316.696 142.928 323.81 147.448C330.924 151.883 334.564 158.495 334.731 167.282V168.789H308.746V168.286C308.746 165.776 307.825 163.683 305.984 162.01C304.143 160.336 301.339 159.499 297.573 159.499C293.891 159.499 291.045 160.043 289.037 161.131C287.112 162.219 286.15 163.558 286.15 165.148C286.15 167.408 287.489 169.081 290.167 170.169C292.845 171.257 297.155 172.387 303.097 173.559C310.043 174.982 315.734 176.488 320.169 178.078C324.689 179.585 328.622 182.095 331.97 185.61C335.317 189.125 337.033 193.895 337.117 199.921C337.117 210.131 333.644 217.705 326.697 222.643C319.835 227.581 310.629 230.049 299.08 230.049C285.606 230.049 275.103 227.79 267.571 223.271C260.122 218.751 256.398 210.759 256.398 199.293H282.635C282.635 203.645 283.764 206.574 286.024 208.081C288.284 209.504 291.799 210.215 296.569 210.215C300.084 210.215 302.971 209.838 305.231 209.085C307.574 208.332 308.746 206.784 308.746 204.44C308.746 202.348 307.449 200.8 304.854 199.796C302.344 198.708 298.201 197.578 292.426 196.406C285.396 194.9 279.58 193.351 274.977 191.761C270.374 190.088 266.357 187.368 262.926 183.602C259.494 179.836 257.779 174.731 257.779 168.286C257.779 158.83 261.419 151.883 268.7 147.448C276.065 142.928 285.355 140.669 296.569 140.669ZM412.648 228.543L376.369 186.614V228.543H350.885V142.175H375.113L411.393 184.731V142.175H436.876V228.543H412.648ZM512.102 228.543L508.461 216.366H478.208L474.567 228.543H446.196L477.705 142.175H509.968L541.477 228.543H512.102ZM483.982 197.034H502.687L493.648 166.278H493.146L483.982 197.034ZM600.393 142.175C605.749 142.175 610.519 143.431 614.704 145.941C618.888 148.368 622.152 151.758 624.495 156.11C626.839 160.378 628.01 165.19 628.01 170.546V172.178C628.01 177.534 626.839 182.388 624.495 186.74C622.152 191.092 618.888 194.523 614.704 197.034C610.519 199.461 605.749 200.674 600.393 200.674H579.68V228.543H551.936V142.175H600.393ZM579.68 180.463H591.103C594.032 180.463 596.208 179.71 597.631 178.204C599.137 176.697 599.891 174.647 599.891 172.052V171.048C599.891 168.37 599.137 166.32 597.631 164.897C596.208 163.391 594.032 162.637 591.103 162.637H579.68V180.463ZM678.812 140.669C689.859 140.669 698.939 142.928 706.053 147.448C713.166 151.883 716.807 158.495 716.974 167.282V168.789H690.988V168.286C690.988 165.776 690.068 163.683 688.227 162.01C686.386 160.336 683.582 159.499 679.816 159.499C676.134 159.499 673.288 160.043 671.28 161.131C669.355 162.219 668.392 163.558 668.392 165.148C668.392 167.408 669.731 169.081 672.409 170.169C675.087 171.257 679.397 172.387 685.339 173.559C692.286 174.982 697.977 176.488 702.412 178.078C706.931 179.585 710.865 182.095 714.212 185.61C717.56 189.125 719.276 193.895 719.359 199.921C719.359 210.131 715.886 217.705 708.94 222.643C702.077 227.581 692.871 230.049 681.322 230.049C667.848 230.049 657.345 227.79 649.813 223.271C642.365 218.751 638.641 210.759 638.641 199.293H664.877C664.877 203.645 666.007 206.574 668.267 208.081C670.526 209.504 674.041 210.215 678.812 210.215C682.327 210.215 685.214 209.838 687.473 209.085C689.817 208.332 690.988 206.784 690.988 204.44C690.988 202.348 689.691 200.8 687.097 199.796C684.586 198.708 680.444 197.578 674.669 196.406C667.639 194.9 661.823 193.351 657.22 191.761C652.617 190.088 648.6 187.368 645.168 183.602C641.737 179.836 640.021 174.731 640.021 168.286C640.021 158.83 643.662 151.883 650.943 147.448C658.308 142.928 667.597 140.669 678.812 140.669ZM791.376 228.543V195.778H760.871V228.543H733.128V142.175H760.871V173.684H791.376V142.175H819.119V228.543H791.376ZM880.632 140.669C895.529 140.669 907.036 144.477 915.154 152.092C923.272 159.708 927.331 170.797 927.331 185.359C927.331 199.921 923.272 211.01 915.154 218.626C907.036 226.242 895.529 230.049 880.632 230.049C865.735 230.049 854.228 226.283 846.11 218.751C838.076 211.136 834.058 200.005 834.058 185.359C834.058 170.713 838.076 159.625 846.11 152.092C854.228 144.477 865.735 140.669 880.632 140.669ZM880.632 161.382C874.69 161.382 870.171 163.181 867.074 166.78C863.978 170.379 862.429 175.233 862.429 181.342V189.376C862.429 195.486 863.978 200.34 867.074 203.938C870.171 207.537 874.69 209.336 880.632 209.336C886.574 209.336 891.093 207.537 894.189 203.938C897.37 200.34 898.96 195.486 898.96 189.376V181.342C898.96 175.233 897.37 170.379 894.189 166.78C891.093 163.181 886.574 161.382 880.632 161.382ZM988.672 164.269V228.543H960.929V164.269H932.558V142.175H1016.92V164.269H988.672Z" fill="#373737"/>
<path d="M260.29 23.9643H288.033V88.238H332.346V110.332H260.29V23.9643ZM344.02 23.9643H418.713V44.6775H371.763V56.6033H411.934V76.4377H371.763V89.6188H419.592V110.332H344.02V23.9643ZM492.487 110.332L488.847 98.1552H458.593L454.952 110.332H426.581L458.091 23.9643H490.353L521.862 110.332H492.487ZM464.367 78.8229H483.072L474.034 48.0669H473.531L464.367 78.8229ZM594.085 110.332L557.805 68.4035V110.332H532.322V23.9643H556.55L592.829 66.5205V23.9643H618.313V110.332H594.085Z" fill="#245928"/>
<path fill-rule="evenodd" clip-rule="evenodd" d="M103.62 159.99C123.29 159.99 139.236 144.044 139.236 124.374C139.236 104.704 123.29 88.7586 103.62 88.7586C83.95 88.7586 68.0043 104.704 68.0043 124.374C68.0043 144.044 83.95 159.99 103.62 159.99ZM103.62 178.977C133.776 178.977 158.222 154.53 158.222 124.374C158.222 94.2182 133.776 69.7719 103.62 69.7719C73.4639 69.7719 49.0176 94.2182 49.0176 124.374C49.0176 154.53 73.4639 178.977 103.62 178.977Z" fill="#245928"/>
<path d="M207.869 100.469L188.62 119.807L188.62 60.6326C187.443 49.8581 180.747 41.122 167.998 40.0278L109.137 40.0278L128.124 21.041L167.363 21.041C195.822 21.9242 207.467 45.5272 207.869 61.2296L207.869 100.469Z" fill="#373737"/>
<path d="M0.132813 149.115L19.3818 129.777L19.3818 188.951C20.4374 199.795 27.4259 208.504 40.0172 209.368H99.0382L79.8772 228.543H40.6379C12.1795 227.66 0.534826 204.057 0.132813 188.354L0.132813 149.115Z" fill="#373737"/>
</svg>
